<?xml version="1.0" encoding="UTF-8" standalone="no"?>
<!-- Uploaded to: SVG Repo, www.svgrepo.com, Generator: SVG Repo Mixer Tools -->

<svg
   width="800px"
   height="800px"
   viewBox="0 0 24 24"
   version="1.1"
   xml:space="preserve"
   id="svg3"
   sodipodi:docname="navigation-bar-menubar-hamburger-menu-svgrepo-com.svg"
   inkscape:version="1.3.2 (091e20e, 2023-11-25, custom)"
   xmlns:inkscape="http://www.inkscape.org/namespaces/inkscape"
   xmlns:sodipodi="http://sodipodi.sourceforge.net/DTD/sodipodi-0.dtd"
   xmlns="http://www.w3.org/2000/svg"
   xmlns:svg="http://www.w3.org/2000/svg"><defs
   id="defs3" /><sodipodi:namedview
   id="namedview3"
   pagecolor="#ffffff"
   bordercolor="#000000"
   borderopacity="0.25"
   inkscape:showpageshadow="2"
   inkscape:pageopacity="0.0"
   inkscape:pagecheckerboard="0"
   inkscape:deskcolor="#d1d1d1"
   inkscape:zoom="0.97125"
   inkscape:cx="400"
   inkscape:cy="400"
   inkscape:window-width="1920"
   inkscape:window-height="991"
   inkscape:window-x="-9"
   inkscape:window-y="-9"
   inkscape:window-maximized="1"
   inkscape:current-layer="svg3" />

<style
   type="text/css"
   id="style1">
	.st0{opacity:0.2;fill:none;stroke:#000000;stroke-width:5.000000e-02;stroke-miterlimit:10;}
</style>

<g
   id="Layer_1" />

<g
   id="Layer_2"
   style="fill:#9e9e9e;fill-opacity:1;stroke-width:0.99999;stroke-dasharray:none"
   transform="rotate(90,12,12)">

<g
   id="g3"
   style="fill:#9e9e9e;fill-opacity:1;stroke-width:0.99999;stroke-dasharray:none">

<path
   d="m 18,4 c -0.6,0 -1,0.4 -1,1 v 14 c 0,0.6 0.4,1 1,1 0.6,0 1,-0.4 1,-1 V 5 C 19,4.4 18.6,4 18,4 Z"
   id="path1"
   style="fill:#9e9e9e;fill-opacity:1;stroke-width:0.99999;stroke-dasharray:none" />

<path
   d="m 12,4 c -0.6,0 -1,0.4 -1,1 v 14 c 0,0.6 0.4,1 1,1 0.6,0 1,-0.4 1,-1 V 5 C 13,4.4 12.6,4 12,4 Z"
   id="path2"
   style="fill:#9e9e9e;fill-opacity:1;stroke-width:0.99999;stroke-dasharray:none" />

<path
   d="M 6,4 C 5.4,4 5,4.4 5,5 v 14 c 0,0.6 0.4,1 1,1 0.6,0 1,-0.4 1,-1 V 5 C 7,4.4 6.6,4 6,4 Z"
   id="path3"
   style="fill:#9e9e9e;fill-opacity:1;stroke-width:0.99999;stroke-dasharray:none" />

</g>

</g>

</svg>
